<?xml version="1.0" encoding="utf-8"?>
<!-- Generator: Adobe Illustrator 23.0.2, SVG Export Plug-In . SVG Version: 6.00 Build 0)  -->
<svg version="1.1" xmlns="http://www.w3.org/2000/svg" xmlns:xlink="http://www.w3.org/1999/xlink" x="0px" y="0px"
	 viewBox="0 0 283.46 283.46" style="enable-background:new 0 0 283.46 283.46;" xml:space="preserve">
<style type="text/css">
	.st0{fill:none;stroke:#CAD15D;stroke-miterlimit:10;}
	.st1{fill:none;stroke:#756A5A;stroke-miterlimit:10;}
	.st2{fill:none;}
	.st3{font-family:'WalbaumCom-Roman';}
	.st4{font-size:24px;}
</style>
<g id="Calque_5">
	<polyline class="st0" points="233.4,85.44 262.82,125.24 254.64,239.71 212.28,229.3 175.32,181.92 	"/>
	<path class="st0" d="M235.35,87.94"/>
	<path class="st0" d="M196.85,35.65"/>
	<polyline class="st0" points="140.13,30.09 192.21,29.35 195.96,34.08 	"/>
	<path class="st0" d="M49.53,85.81L20.5,125.24l8.18,114.47l42.37-10.41l13.17-19.15c1.18-1.71,21.58-27.29,23.43-28.23"/>
	<path class="st0" d="M49.53,85.81"/>
	<polyline class="st0" points="143.19,30.09 91.12,29.35 87.43,34.35 	"/>
</g>
<g id="Calque_1">
	<path class="st1" d="M141.36,194.04c-57.12-1.2-76.68-88.2-76.68-88.2C30.06,62.97,35.23,31.52,40.27,18.05
		c1.66-4.44,6.46-6.83,11.03-5.56c38.26,10.64,55.14,47.27,55.14,47.27c13.68-6.96,35.04-6.72,35.04-6.72h0.48
		c0,0,21.36-0.24,35.04,6.72c0,0,16.88-36.63,55.14-47.27c4.57-1.27,9.37,1.12,11.03,5.56c5.04,13.47,10.21,44.92-24.41,87.79
		c0,0-19.56,87-76.68,88.2H141.36z"/>
</g>
<g id="Calque_3">
	<rect x="51.04" y="244.56" class="st2" width="180.96" height="24.36"/>
	<text transform="matrix(1 0 0 1 51.04 265.1359)" class="st3 st4">HAIRLESSNESS</text>
</g>
</svg>
